<svg id="Capa_1" data-name="Capa 1" xmlns="http://www.w3.org/2000/svg" viewBox="0 0 170.61 18.19"><defs><style>.cls-1{fill:#777679;}.cls-2{fill:#9a2c31;}.cls-3{fill:#2d6244;}</style></defs><title>bancoazteca</title><g id="Grupo_796" data-name="Grupo 796"><path id="Trazado_367" data-name="Trazado 367" class="cls-1" d="M42,3.83h6.27c1.46,0,4,.56,4,3.23,0,1.9-1.47,3.32-3.7,3.58v0c1.62.25,2.73,1.18,2.73,2.73,0,3-2.57,4.41-5.8,4.45L39,17.94Zm1.33,11.44h1c1.9,0,3.18-.52,3.18-1.9,0-1.23-.89-1.41-2.59-1.41H44Zm1.23-5.86h1.42c1.58,0,2.5-.63,2.5-1.6,0-1.14-.93-1.33-2.34-1.33h-1Z"/><path id="Trazado_368" data-name="Trazado 368" class="cls-1" d="M59.1,16.47l0,0v0a4,4,0,0,1-3.54,1.72c-2.26,0-3.52-1-3.52-3.06,0-2.59,2.59-3.86,5.8-3.86.73,0,1.45.06,2,.1a1.5,1.5,0,0,0,0-.42c0-.75-.75-1.36-1.94-1.36a6.67,6.67,0,0,0-3.42.83l.37-2.65a11.47,11.47,0,0,1,3.86-.61c2.5,0,4.57,1,4.57,3.58,0,1.66-.93,4-1.33,7.2h-3Zm-2.43-.71a2.76,2.76,0,0,0,2.76-2.49,5.32,5.32,0,0,0-1-.06c-1.75-.06-3,.57-3,1.5a1.16,1.16,0,0,0,1.23,1"/><path id="Trazado_369" data-name="Trazado 369" class="cls-1" d="M65.31,10.15c.18-.91.33-1.8.44-2.75h3.38l-.3,1.72h0a5,5,0,0,1,4.06-2c2.13,0,3.28,1.58,3.28,3.65A9.78,9.78,0,0,1,75.93,13L75,18H71.21l1-4.95a8.71,8.71,0,0,0,.24-1.6,1.2,1.2,0,0,0-1.17-1.24l-.25,0c-1.53,0-2.44,1.33-2.71,2.89l-1,4.87H63.66Z"/><path id="Trazado_370" data-name="Trazado 370" class="cls-1" d="M85.25,17.78a9.92,9.92,0,0,1-3.11.4,4.7,4.7,0,0,1-5-4.42c0-.13,0-.26,0-.39,0-3.46,2.76-6.21,6.8-6.21a9.73,9.73,0,0,1,3.32.71l-.79,2.53a5.61,5.61,0,0,0-2.35-.57,3.08,3.08,0,0,0-3.23,2.92,2.57,2.57,0,0,0,0,.48,2.31,2.31,0,0,0,2.34,2.29h.17a5.56,5.56,0,0,0,2.34-.46Z"/><path id="Trazado_371" data-name="Trazado 371" class="cls-1" d="M92.25,18.18c-3.9,0-5.48-2.16-5.48-4.81,0-3.7,2.67-6.21,6.8-6.21,3.58,0,5.48,2.06,5.48,4.71,0,4.39-2.85,6.3-6.8,6.3m1.12-8.46c-1.76,0-2.85,1.9-2.85,3.58,0,1.42.75,2.37,2,2.35,1.7,0,2.77-1.42,2.77-3.8,0-1.09-.48-2.13-1.9-2.13"/><path id="Trazado_372" data-name="Trazado 372" class="cls-1" d="M110.83,3.83h4.74l2.32,14.11h-3.82l-.39-3H108.2l-1.67,3h-4.09Zm1.88,2.91h0l-3,5.52h3.65Z"/><path id="Trazado_373" data-name="Trazado 373" class="cls-1" d="M118.74,15.19l5.74-5.12H120l.55-2.66h8.94l-.57,2.74-5.78,5.12h4.81l-.54,2.67h-9.16Z"/><path id="Trazado_374" data-name="Trazado 374" class="cls-1" d="M130,7.41h2.08l.51-2.26,3.84-1-.73,3.3h2.51L137.75,10H135.1l-.62,2.93a10,10,0,0,0-.31,1.82,1.12,1.12,0,0,0,1.05,1.17h.15a3.67,3.67,0,0,0,1.17-.3l-.4,2.39a15.56,15.56,0,0,1-2.26.2c-1.86,0-3.34-.91-3.34-3.12a9.9,9.9,0,0,1,.33-2.16l.63-3h-2Z"/><path id="Trazado_375" data-name="Trazado 375" class="cls-1" d="M146.93,17.6a13.47,13.47,0,0,1-3.68.58c-3.52,0-5.42-2.16-5.42-4.81a6.06,6.06,0,0,1,5.91-6.21h.39c2.77,0,4.85,1.4,4.85,4.59a11.07,11.07,0,0,1-.26,2h-7.45c0,1.14.6,2,2.83,2a8.17,8.17,0,0,0,3.3-.72Zm-1-5.93c0-1.14-.44-2.08-1.78-2.08a2.68,2.68,0,0,0-2.69,2.08Z"/><path id="Trazado_376" data-name="Trazado 376" class="cls-1" d="M158,17.78a9.92,9.92,0,0,1-3.11.4,4.7,4.7,0,0,1-5-4.42c0-.13,0-.26,0-.39,0-3.46,2.75-6.21,6.8-6.21a9.73,9.73,0,0,1,3.32.71l-.79,2.53a5.61,5.61,0,0,0-2.35-.57,3.08,3.08,0,0,0-3.23,2.92,2.57,2.57,0,0,0,0,.48A2.31,2.31,0,0,0,156,15.52h.17a5.56,5.56,0,0,0,2.34-.46Z"/><path id="Trazado_377" data-name="Trazado 377" class="cls-1" d="M166.47,16.47l0,0v0a4,4,0,0,1-3.55,1.72c-2.26,0-3.51-1-3.51-3.06,0-2.59,2.59-3.86,5.8-3.86.73,0,1.45.06,2,.1a1.5,1.5,0,0,0,0-.42c0-.75-.75-1.36-1.94-1.36a6.67,6.67,0,0,0-3.42.83l.36-2.65A11.57,11.57,0,0,1,166,7.16c2.51,0,4.57,1,4.57,3.58,0,1.66-.93,4-1.33,7.2h-3ZM164,15.76a2.76,2.76,0,0,0,2.75-2.49,5.27,5.27,0,0,0-1-.06c-1.74-.06-3,.57-3,1.5a1.16,1.16,0,0,0,1.23,1"/><path id="Trazado_378" data-name="Trazado 378" class="cls-2" d="M21.05,11.56a5.18,5.18,0,1,1-5.18-5.18,5.18,5.18,0,0,1,5.18,5.18h0"/><path id="Trazado_379" data-name="Trazado 379" class="cls-3" d="M22.6,0a38.47,38.47,0,0,0-7.15,2C9.15,4.64,4.72,9.27,5.1,13.18c.25,2.56,1.61,4.24,5,4.85-6,.62-9.67-1.2-10-4.82C-.39,8.87,5.44,3.57,13.18,1.15a26.48,26.48,0,0,1,3.4-.76,39,39,0,0,1,6-.38"/><path id="Trazado_380" data-name="Trazado 380" class="cls-3" d="M9.15,0A38.26,38.26,0,0,1,16.3,2C22.59,4.64,27,9.27,26.65,13.18,26.4,15.74,25,17.42,21.7,18c6,.63,9.68-1.2,10-4.82.42-4.34-5.41-9.64-13.16-12.06a26.48,26.48,0,0,0-3.4-.76,40.26,40.26,0,0,0-6-.38"/></g></svg>